# xmcd
#
# Track frame offsets:
#	150
#	19120
#	38853
#	60800
#	79018
#	98383
#	116133
#	135863
#	153623
#	174008
#
# Disc length: 2692 seconds
#
# Revision: 12
# Processed by: cddbd v1.5.2PL0 Copyright (c) Steve Scherf et al.
# Submitted via: Jack! The Knife 20 Magnifico
#
DISCID=650a820a
DTITLE=Pooh - Boomerang
DYEAR=1978
DGENRE=Pop
TTITLE0=La Città Degli Altri
TTITLE1=Ci Penserò Domani
TTITLE2=Pronto, Buongiorno È La Sveglia
TTITLE3=Cercami
TTITLE4=La Leggenda Di Mautoa
TTITLE5=Air India
TTITLE6=Quaderno Di Donna
TTITLE7=Incredibilmente Giù
TTITLE8=Classe '58
TTITLE9=Il Ragazzo Del Cielo (Lindbergh)
EXTD=Pooh
EXTT0=Facchinetti, Negrini
EXTT1=Battaglia, Negrini
EXTT2=Facchinetti, D'Orazio
EXTT3=Facchinetti, Negrini
EXTT4=Facchinetti, D'Orazio
EXTT5=Facchinetti, Battaglia, Negrini
EXTT6=Facchinetti, Negrini
EXTT7=Facchinetti, Negrini
EXTT8=Facchinetti, Negrini
EXTT9=Facchinetti, Canzian, Negrini
PLAYORDER=
